<svg xmlns="http://www.w3.org/2000/svg" viewBox="0 0 512 512" width="512" height="512">
  <defs>
    <!-- Background Gradient (Dark Ubuntu Aubergine) -->
    <linearGradient id="termBg" x1="0%" y1="0%" x2="100%" y2="100%">
      <stop offset="0%" stop-color="#300a24" />
      <stop offset="50%" stop-color="#24061a" />
      <stop offset="100%" stop-color="#15030f" />
    </linearGradient>

    <!-- Top Bar Gradient -->
    <linearGradient id="barBg" x1="0%" y1="0%" x2="0%" y2="100%">
      <stop offset="0%" stop-color="#4a153b" />
      <stop offset="100%" stop-color="#2d0821" />
    </linearGradient>

    <!-- Neon Orange Prompt Gradient -->
    <linearGradient id="promptOrange" x1="0%" y1="0%" x2="100%" y2="100%">
      <stop offset="0%" stop-color="#ff7b47" />
      <stop offset="100%" stop-color="#e95420" />
    </linearGradient>

    <!-- Cursor Green Glow Gradient -->
    <linearGradient id="cursorGreen" x1="0%" y1="0%" x2="100%" y2="100%">
      <stop offset="0%" stop-color="#5af78e" />
      <stop offset="100%" stop-color="#28c840" />
    </linearGradient>

    <!-- Inner Border Glow -->
    <linearGradient id="termBorderGlow" x1="0%" y1="0%" x2="100%" y2="100%">
      <stop offset="0%" stop-color="#77216f" />
      <stop offset="100%" stop-color="#5e2750" />
    </linearGradient>

    <!-- Shadow Filter -->
    <filter id="termDropShadow" x="-10%" y="-10%" width="120%" height="120%">
      <feDropShadow dx="0" dy="16" stdDeviation="20" flood-color="#000000" flood-opacity="0.65" />
    </filter>

    <!-- Glow Filter for Symbols -->
    <filter id="symbolGlow" x="-20%" y="-20%" width="140%" height="140%">
      <feGaussianBlur stdDeviation="6" result="blur" />
      <feComposite in="SourceGraphic" in2="blur" operator="over" />
    </filter>
  </defs>

  <!-- Base Squircle Container -->
  <rect x="32" y="32" width="448" height="448" rx="96" fill="url(#termBg)" filter="url(#termDropShadow)" />
  
  <!-- Outer Stroke / Border -->
  <rect x="32" y="32" width="448" height="448" rx="96" fill="none" stroke="url(#termBorderGlow)" stroke-width="8" />

  <!-- Top Titlebar Area -->
  <path d="M 32 128 L 32 128 A 96 96 0 0 1 128 32 L 384 32 A 96 96 0 0 1 480 128 L 480 128 L 32 128 Z" fill="url(#barBg)" />
  <line x1="32" y1="128" x2="480" y2="128" stroke="#5e2750" stroke-width="4" />

  <!-- Window Control Dots -->
  <!-- Close Dot (Ubuntu Orange/Red) -->
  <circle cx="88" cy="80" r="16" fill="#e95420" />
  <!-- Minimize Dot (Ubuntu Plum) -->
  <circle cx="136" cy="80" r="16" fill="#77216f" />
  <!-- Maximize Dot (Ubuntu Purple) -->
  <circle cx="184" cy="80" r="16" fill="#5e2750" />

  <!-- Command Prompt Symbols in Center -->
  <g filter="url(#symbolGlow)">
    <!-- Prompt Chevron '>' -->
    <path d="M 120 200 L 220 290 L 120 380" fill="none" stroke="url(#promptOrange)" stroke-width="40" stroke-linecap="round" stroke-linejoin="round" />

    <!-- Underscore / Block Cursor '_' -->
    <line x1="260" y1="380" x2="380" y2="380" stroke="url(#cursorGreen)" stroke-width="40" stroke-linecap="round" />
  </g>
</svg>