<svg xmlns="http://www.w3.org/2000/svg" viewBox="0 0 512 512" width="512" height="512">
  <defs>
    <!-- Background Gradient -->
    <linearGradient id="bgGrad" x1="0%" y1="0%" x2="100%" y2="100%">
      <stop offset="0%" stop-color="#0969da" />
      <stop offset="50%" stop-color="#1f6feb" />
      <stop offset="100%" stop-color="#8957e5" />
    </linearGradient>

    <!-- Subtle Inner Glow -->
    <linearGradient id="innerGlow" x1="0%" y1="0%" x2="0%" y2="100%">
      <stop offset="0%" stop-color="#ffffff" stop-opacity="0.3" />
      <stop offset="100%" stop-color="#ffffff" stop-opacity="0.0" />
    </linearGradient>

    <!-- Node Glow Filter -->
    <filter id="glow" x="-20%" y="-20%" width="140%" height="140%">
      <feGaussianBlur stdDeviation="8" result="blur" />
      <feComposite in="SourceGraphic" in2="blur" operator="over" />
    </filter>

    <!-- Shadow -->
    <filter id="dropShadow" x="-10%" y="-10%" width="120%" height="120%">
      <feDropShadow dx="0" dy="16" stdDeviation="20" flood-color="#000000" flood-opacity="0.45" />
    </filter>
  </defs>

  <!-- Base Icon Squircle with Drop Shadow -->
  <rect x="32" y="32" width="448" height="448" rx="100" fill="url(#bgGrad)" filter="url(#dropShadow)" />
  
  <!-- Subtle Bevel / Highlight Border -->
  <rect x="32" y="32" width="448" height="448" rx="100" fill="none" stroke="url(#innerGlow)" stroke-width="6" />

  <!-- Git Branch Network -->
  <g filter="url(#glow)">
    <!-- Main Trunk Line -->
    <line x1="140" y1="130" x2="140" y2="380" stroke="#ffffff" stroke-width="32" stroke-linecap="round" />

    <!-- Branch Spline Path -->
    <path d="M 140 280 C 140 200, 360 260, 360 160" fill="none" stroke="#ffffff" stroke-width="32" stroke-linecap="round" />

    <!-- Rebase / Merge Curve Path -->
    <path d="M 360 220 C 360 300, 140 320, 140 380" fill="none" stroke="#58a6ff" stroke-width="20" stroke-dasharray="8 12" stroke-linecap="round" opacity="0.85" />
    
    <!-- Nodes (Commit Points) -->
    <!-- Trunk Top Node -->
    <circle cx="140" cy="140" r="42" fill="#ffffff" />
    <circle cx="140" cy="140" r="22" fill="#1f6feb" />

    <!-- Trunk Bottom Node -->
    <circle cx="140" cy="380" r="42" fill="#ffffff" />
    <circle cx="140" cy="380" r="22" fill="#1f6feb" />

    <!-- Branch Head Node -->
    <circle cx="360" cy="140" r="42" fill="#ffffff" />
    <circle cx="360" cy="140" r="22" fill="#8957e5" />
  </g>
</svg>